<?xml version="1.0" encoding="UTF-8" standalone="no"?>
<!DOCTYPE svg PUBLIC "-//W3C//DTD SVG 1.1//EN" "http://www.w3.org/Graphics/SVG/1.1/DTD/svg11.dtd">
<svg xmlns="http://www.w3.org/2000/svg" xmlns:xlink="http://www.w3.org/1999/xlink" version="1.1" width="1080" height="1080" viewBox="0 0 1080 1080" xml:space="preserve">
    <desc>Created with Fabric.js 5.2.4</desc>
    <defs></defs>
    <g transform="matrix(1 0 0 1 540 540)" id="6803a830-06e4-43e8-be1d-146bf97e6ba8">
        <rect style="stroke: none; stroke-width: 1; stroke-dasharray: none; stroke-linecap: butt; stroke-dashoffset: 0; stroke-linejoin: miter; stroke-miterlimit: 4; fill: rgb(255,255,255); fill-rule: nonzero; opacity: 1; visibility: hidden;" vector-effect="non-scaling-stroke" x="-540" y="-540" rx="0" ry="0" width="1080" height="1080" />
    </g>
    <g transform="matrix(1 0 0 1 540 540)" id="91162327-8b5e-4aae-951a-8dae4adcbc75"></g>
    <g transform="matrix(5.52 0 0 5.52 540 540)">
        <g style="">
            <g transform="matrix(1 0 0 1 -74.1 -24.69)" id="A">
                <path style="stroke: none; stroke-width: 1; stroke-dasharray: none; stroke-linecap: butt; stroke-dashoffset: 0; stroke-linejoin: miter; stroke-miterlimit: 4; fill: rgb(61,61,61); fill-rule: nonzero; opacity: 1;" vector-effect="non-scaling-stroke" transform=" translate(-23.68, -23.68)" d="M 23.69 0 C 36.766799706409785 0.005522297665781133 47.363680204922304 10.609863497150135 47.35999906175955 23.686663851461415 C 47.3563179185968 36.76346420577269 36.75346881722267 47.36183764268865 23.67666807423616 47.3599976541019 C 10.599867331249651 47.35815766551516 0.0000011660257435153198 36.75680087243547 3.552713678800501e-15 23.679999999999996 C 0.005521199440767512 10.600279689993542 10.610278524691836 -0.0000011653017431001444 23.68999999999999 0 Z" stroke-linecap="round" />
            </g>
            <g transform="matrix(1 0 0 1 -74.07 -24.69)" id="Layer_1">
                <path style="stroke: none; stroke-width: 1; stroke-dasharray: none; stroke-linecap: butt; stroke-dashoffset: 0; stroke-linejoin: miter; stroke-miterlimit: 4; fill: rgb(61,61,61); fill-rule: nonzero; opacity: 1;" vector-effect="non-scaling-stroke" transform=" translate(-23.71, -23.68)" d="M 32.45 38.83 L 29.67 31.169999999999998 L 17.54 31.169999999999998 L 14.9 38.83 L 9.42 38.83 L 20.88 8.53 L 26.47 8.53 L 38 38.83 Z M 23.66 13.08 L 23.53 13.08 C 23.45466771244022 13.816828848072285 23.303876963722313 14.54397534744529 23.080000000000002 15.25 L 18.94 26.93 L 28.240000000000002 26.93 L 24.07 15.25 C 23.863976292532058 14.54150870071206 23.726675613508828 13.81481974100372 23.660000000000004 13.080000000000002 Z" stroke-linecap="round" />
            </g>
            <g transform="matrix(1 0 0 1 -24.7 -24.68)" id="B">
                <path style="stroke: none; stroke-width: 1; stroke-dasharray: none; stroke-linecap: butt; stroke-dashoffset: 0; stroke-linejoin: miter; stroke-miterlimit: 4; fill: rgb(61,61,61); fill-rule: nonzero; opacity: 1;" vector-effect="non-scaling-stroke" transform=" translate(-73.08, -23.69)" d="M 73.08 0 C 86.16362572349149 0 96.77 10.606374276508497 96.77000000000001 23.689999999999994 C 96.77000000000001 36.77362572349149 86.1636257234915 47.379999999999995 73.08000000000001 47.38 C 59.99637427650851 47.38000000000001 49.39 36.773625723491506 49.39 23.69000000000001 C 49.39551838894571 10.608660749891056 59.998660749891044 0.005518388945716879 73.07999999999998 -3.552713678800501e-15 Z" stroke-linecap="round" />
            </g>
            <g transform="matrix(1 0 0 1 -24.69 -24.7)" id="Layer_1">
                <path style="stroke: none; stroke-width: 1; stroke-dasharray: none; stroke-linecap: butt; stroke-dashoffset: 0; stroke-linejoin: miter; stroke-miterlimit: 4; fill: rgb(61,61,61); fill-rule: nonzero; opacity: 1;" vector-effect="non-scaling-stroke" transform=" translate(-73.09, -23.67)" d="M 83.29 30 C 83.36080303300874 32.46987124124277 82.27773106709981 34.83192921467555 80.36 36.39 C 78.21352199248491 38.08147074407942 75.5300292419643 38.94402198531819 72.8 38.82 L 62.89 38.82 L 62.89 8.53 L 72.46000000000001 8.53 C 74.89193968748614 8.407545156388478 77.2992731893611 9.066320554281479 79.33000000000001 10.409999999999995 C 80.96369453256645 11.58244245298348 81.90809128904685 13.489973996826844 81.85000000000001 15.499999999999998 C 81.87405516247644 17.080792528208498 81.34328856722207 18.620015654446156 80.35000000000001 19.85 C 79.32564613414556 21.133090852666196 77.927851354467 22.066118868101643 76.35000000000001 22.520000000000003 L 76.35000000000001 22.610000000000003 C 78.283533738117 22.77295913276248 80.09548823088667 23.620429042296635 81.46 24.999999999999996 C 82.68470506288486 26.372670229700702 83.33925575890082 28.161060109525735 83.29 30.000000000000004 Z M 76.52 16.47 C 76.56651323447552 15.377039946908326 76.06837120758209 14.33206531906421 75.19 13.68 C 73.99254957137524 12.940117196256717 72.5947540505481 12.590668316049932 71.19 12.68 L 67.93 12.68 L 67.93 21.07 L 71.16000000000001 21.07 C 72.59473130667592 21.168255161835337 74.01628220919828 20.741789891078632 75.16000000000001 19.87 C 76.09856117207397 18.996791309278144 76.59743485514194 17.749607101608213 76.52 16.47 Z M 78 29.87 C 78.06143250369266 28.550276919908093 77.48470588468908 27.281478358100216 76.45 26.46 C 75.0626496375525 25.560236804114716 73.41913026392872 25.13882158010862 71.77000000000001 25.26 L 67.93 25.26 L 67.93 34.67 L 72.17 34.67 C 73.69477712505396 34.7565744202313 75.19979443681993 34.29158086400172 76.41 33.36 C 77.46329505584481 32.51450784769852 78.05323308592091 31.219612423191887 78 29.87 Z" stroke-linecap="round" />
            </g>
            <g transform="matrix(1 0 0 1 74.09 -24.68)" id="Y">
                <path style="stroke: none; stroke-width: 1; stroke-dasharray: none; stroke-linecap: butt; stroke-dashoffset: 0; stroke-linejoin: miter; stroke-miterlimit: 4; fill: rgb(61,61,61); fill-rule: nonzero; opacity: 1;" vector-effect="non-scaling-stroke" transform=" translate(-171.87, -23.69)" d="M 171.87 0 C 184.9536257234915 0 195.56 10.606374276508497 195.56 23.689999999999994 C 195.56 36.77362572349149 184.9536257234915 47.379999999999995 171.87 47.38 C 158.78637427650852 47.38000000000001 148.18 36.773625723491506 148.18 23.69000000000001 C 148.18 10.606374276508504 158.7863742765085 0 171.87 0 Z" stroke-linecap="round" />
            </g>
            <g transform="matrix(1 0 0 1 74.08 -24.68)" id="Layer_1">
                <path style="stroke: none; stroke-width: 1; stroke-dasharray: none; stroke-linecap: butt; stroke-dashoffset: 0; stroke-linejoin: miter; stroke-miterlimit: 4; fill: rgb(61,61,61); fill-rule: nonzero; opacity: 1;" vector-effect="non-scaling-stroke" transform=" translate(-171.87, -23.69)" d="M 174.27 27.85 L 174.27 38.85 L 169.27 38.85 L 169.27 28 L 159.42 8.53 L 165.14 8.53 L 171.23999999999998 21.18 C 171.42223510061402 21.53836335489556 171.569580160322 21.913423506879557 171.67999999999998 22.3 C 171.77999999999997 22.64 171.84999999999997 22.91 171.92999999999998 23.13 L 171.92999999999998 23.13 C 172.08075618158801 22.46743262912999 172.3124987953683 21.825942205477276 172.61999999999998 21.22 L 179 8.53 L 184.31 8.53 Z" stroke-linecap="round" />
            </g>
            <g transform="matrix(1 0 0 1 24.7 -24.68)" id="X">
                <path style="stroke: none; stroke-width: 1; stroke-dasharray: none; stroke-linecap: butt; stroke-dashoffset: 0; stroke-linejoin: miter; stroke-miterlimit: 4; fill: rgb(61,61,61); fill-rule: nonzero; opacity: 1;" vector-effect="non-scaling-stroke" transform=" translate(-122.48, -23.69)" d="M 122.47 0 C 132.052619557055 -0.004045006505155758 140.69392179318052 5.765272874799004 144.36383470049662 14.61729824699748 C 148.03374760781273 23.469323619195954 146.00940084862526 33.660454731598094 139.23489555324042 40.4378208822597 C 132.46039025785558 47.21518703292131 122.27011474944678 49.24383639008659 113.41654069916291 45.577661206946665 C 104.56296664887904 41.91148602380674 98.79000085373717 33.27262041079214 98.79 23.690000000000005 C 98.7955132510556 10.612562669555468 109.392566162885 0.01103465092207756 122.47 0 Z" stroke-linecap="round" />
            </g>
            <g transform="matrix(1 0 0 1 24.67 -24.67)" id="Layer_1">
                <path style="stroke: none; stroke-width: 1; stroke-dasharray: none; stroke-linecap: butt; stroke-dashoffset: 0; stroke-linejoin: miter; stroke-miterlimit: 4; fill: rgb(61,61,61); fill-rule: nonzero; opacity: 1;" vector-effect="non-scaling-stroke" transform=" translate(-122.46, -23.7)" d="M 129.59 38.83 L 123.18 27.83 C 123.05999126522418 27.58502875385731 122.95967439958714 27.330892694243488 122.88000000000001 27.069999999999997 C 122.82521088351335 26.811662558033976 122.75168313122795 26.55765759559354 122.66000000000001 26.309999999999995 L 122.57000000000001 26.309999999999995 C 122.46000000000001 26.579999999999995 122.38000000000001 26.829999999999995 122.30000000000001 27.079999999999995 C 122.21095912857082 27.338707139325482 122.10057952738434 27.589569869294763 121.97000000000001 27.829999999999995 L 115.44000000000001 38.83 L 109.32000000000001 38.83 L 119.46000000000001 23.64 L 110.2 8.53 L 116.39 8.53 L 121.79 18.53 C 122.21399864329024 19.24339448666448 122.54979017963291 20.005641274162336 122.79 20.799999999999997 L 122.87 20.8 C 123.17 20.01 123.4 19.490000000000002 123.52000000000001 19.240000000000002 C 123.64000000000001 18.990000000000002 125.73 15.440000000000001 129.79000000000002 8.580000000000002 L 135.47000000000003 8.580000000000002 L 126.01000000000002 23.580000000000002 L 135.59000000000003 38.86 Z" stroke-linecap="round" />
            </g>
            <g transform="matrix(1 0 0 1 -74.1 24.69)" id="A-2">
                <path style="stroke: none; stroke-width: 1; stroke-dasharray: none; stroke-linecap: butt; stroke-dashoffset: 0; stroke-linejoin: miter; stroke-miterlimit: 4; fill: rgb(31,31,31); fill-rule: nonzero; opacity: 1;" vector-effect="non-scaling-stroke" transform=" translate(-23.68, -73.06)" d="M 23.69 49.38 C 36.766799706409785 49.38552229766579 47.363680204922304 59.98986349715014 47.35999906175955 73.06666385146141 C 47.3563179185968 86.14346420577269 36.75346881722267 96.74183764268865 23.67666807423616 96.7399976541019 C 10.599867331249651 96.73815766551516 0.0000011660257435153198 86.13680087243547 3.552713678800501e-15 73.06 C -5.60155586633621e-7 66.77794052629137 2.4962220847597374 60.75332390774203 6.93924658206803 56.31217489565844 C 11.382271079376324 51.871025883574845 17.407941086446936 49.377347103262764 23.69000000000001 49.38 Z" stroke-linecap="round" />
            </g>
            <g transform="matrix(1 0 0 1 -74.07 24.68)" id="Layer_1">
                <path style="stroke: none; stroke-width: 1; stroke-dasharray: none; stroke-linecap: butt; stroke-dashoffset: 0; stroke-linejoin: miter; stroke-miterlimit: 4; fill: rgb(31,31,31); fill-rule: nonzero; opacity: 1;" vector-effect="non-scaling-stroke" transform=" translate(-23.71, -73.05)" d="M 32.45 88.21 L 29.67 80.55 L 17.54 80.55 L 14.9 88.21 L 9.42 88.21 L 20.88 57.9 L 26.47 57.9 L 38 88.21 Z M 23.66 62.46 L 23.53 62.46 C 23.45256672621449 63.196502936512076 23.301819629845067 63.92343893456018 23.080000000000002 64.63 L 18.94 76.31 L 28.240000000000002 76.31 L 24.07 64.63 C 23.865046090435595 63.92125314128374 23.727764906264024 63.19466736164398 23.659999999999997 62.46 Z" stroke-linecap="round" />
            </g>
            <g transform="matrix(1 0 0 1 -24.7 24.69)" id="B-2">
                <path style="stroke: none; stroke-width: 1; stroke-dasharray: none; stroke-linecap: butt; stroke-dashoffset: 0; stroke-linejoin: miter; stroke-miterlimit: 4; fill: rgb(31,31,31); fill-rule: nonzero; opacity: 1;" vector-effect="non-scaling-stroke" transform=" translate(-73.08, -73.06)" d="M 73.08 49.37 C 86.16362572349149 49.37 96.77 59.976374276508494 96.77000000000001 73.05999999999999 C 96.77000000000001 86.14362572349148 86.1636257234915 96.75 73.08000000000001 96.75 C 59.99637427650851 96.75 49.39 86.14362572349151 49.39 73.06 C 49.39551838894571 59.97866074989106 59.99866074989105 49.37551838894572 73.07999999999998 49.37 Z" stroke-linecap="round" />
            </g>
            <g transform="matrix(1 0 0 1 -24.69 24.68)" id="Layer_1">
                <path style="stroke: none; stroke-width: 1; stroke-dasharray: none; stroke-linecap: butt; stroke-dashoffset: 0; stroke-linejoin: miter; stroke-miterlimit: 4; fill: rgb(31,31,31); fill-rule: nonzero; opacity: 1;" vector-effect="non-scaling-stroke" transform=" translate(-73.09, -73.05)" d="M 83.29 79.38 C 83.36390460051733 81.85050099588861 82.2802321959093 84.21386845849793 80.36 85.77 C 78.21448299739471 87.4642468999076 75.53116193655084 88.33029232166143 72.8 88.21 L 62.89 88.21 L 62.89 57.9 L 72.46000000000001 57.9 C 74.89358543738778 57.77551563543199 77.30254243102615 58.4382417952539 79.33000000000001 59.79 C 80.97070000851416 60.95648022433748 81.91708004009651 62.868017669081205 81.85000000000001 64.88 C 81.87255617836082 66.45750883174681 81.341827253726 67.99308452035692 80.35000000000001 69.22 C 79.32838348953933 70.50606818611381 77.92955106733734 71.43978882793363 76.35000000000001 71.89 L 76.35000000000001 72 C 78.2702240418205 72.15381380739734 80.07046443024663 72.99534629666162 81.42000000000002 74.37 C 82.6660820674778 75.73636499109939 83.33606192033817 77.53133775197131 83.29 79.38 Z M 76.52 65.84 C 76.56651323447552 64.74703994690833 76.06837120758209 63.70206531906422 75.19 63.050000000000004 C 73.99229020181893 62.310732198172346 72.59469349337277 61.9613330210608 71.19 62.050000000000004 L 67.93 62.050000000000004 L 67.93 70.43 L 71.16000000000001 70.43 C 72.59473130667592 70.52825516183535 74.01628220919828 70.10178989107864 75.16000000000001 69.23 C 76.09815657887847 68.36070619733044 76.59724581696337 67.11665287592764 76.52 65.84 Z M 78 79.25 C 78.06309981514067 77.92995670631777 77.48604345588048 76.66043271594535 76.45 75.84 C 75.06567740916655 74.93260692639534 73.42065248978874 74.50729065450493 71.77000000000001 74.63000000000001 L 67.93 74.63000000000001 L 67.93 84.05000000000001 L 72.17 84.05000000000001 C 73.69477712505396 84.13657442023131 75.19979443681993 83.67158086400174 76.41 82.74000000000001 C 77.46071489539867 81.89250388803873 78.05002779542156 80.5989806043407 78 79.25 Z" stroke-linecap="round" />
            </g>
            <g transform="matrix(1 0 0 1 74.09 24.69)" id="Y-2">
                <path style="stroke: none; stroke-width: 1; stroke-dasharray: none; stroke-linecap: butt; stroke-dashoffset: 0; stroke-linejoin: miter; stroke-miterlimit: 4; fill: rgb(31,31,31); fill-rule: nonzero; opacity: 1;" vector-effect="non-scaling-stroke" transform=" translate(-171.87, -73.06)" d="M 171.87 49.37 C 184.9536257234915 49.37 195.56 59.976374276508494 195.56 73.05999999999999 C 195.56 86.14362572349148 184.9536257234915 96.75 171.87 96.75 C 158.78637427650852 96.75 148.18 86.14362572349151 148.18 73.06 C 148.18551838894572 59.97866074989106 158.78866074989105 49.37551838894572 171.87 49.37 Z" stroke-linecap="round" />
            </g>
            <g transform="matrix(1 0 0 1 74.08 24.7)" id="Layer_1">
                <path style="stroke: none; stroke-width: 1; stroke-dasharray: none; stroke-linecap: butt; stroke-dashoffset: 0; stroke-linejoin: miter; stroke-miterlimit: 4; fill: rgb(31,31,31); fill-rule: nonzero; opacity: 1;" vector-effect="non-scaling-stroke" transform=" translate(-171.87, -73.06)" d="M 174.27 77.22 L 174.27 88.22 L 169.27 88.22 L 169.27 77.34 L 159.42000000000002 57.910000000000004 L 165.14000000000001 57.910000000000004 L 171.24 70.55000000000001 C 171.42223510061405 70.90836335489557 171.56958016032203 71.28342350687957 171.68 71.67000000000002 C 171.78 72.01000000000002 171.85 72.28000000000002 171.93 72.50000000000001 L 171.93 72.50000000000001 C 172.08075839142765 71.84063300384794 172.31251889552001 71.20245190562254 172.62 70.60000000000001 L 179 57.91 L 184.31 57.91 Z" stroke-linecap="round" />
            </g>
            <g transform="matrix(1 0 0 1 24.7 24.69)" id="X-2">
                <path style="stroke: none; stroke-width: 1; stroke-dasharray: none; stroke-linecap: butt; stroke-dashoffset: 0; stroke-linejoin: miter; stroke-miterlimit: 4; fill: rgb(31,31,31); fill-rule: nonzero; opacity: 1;" vector-effect="non-scaling-stroke" transform=" translate(-122.48, -73.06)" d="M 122.47 49.37 C 132.052619557055 49.36595499349484 140.69392179318052 55.13527287479901 144.36383470049662 63.98729824699748 C 148.03374760781273 72.83932361919597 146.00940084862526 83.0304547315981 139.23489555324042 89.8078208822597 C 132.46039025785558 96.58518703292131 122.27011474944678 98.61383639008659 113.41654069916291 94.94766120694666 C 104.56296664887904 91.28148602380674 98.79000085373718 82.64262041079215 98.79 73.06 C 98.79551325105558 59.98256266955546 109.39256616288499 49.381034650922075 122.47 49.37 Z" stroke-linecap="round" />
            </g>
            <g transform="matrix(1 0 0 1 24.67 24.7)" id="Layer_1">
                <path style="stroke: none; stroke-width: 1; stroke-dasharray: none; stroke-linecap: butt; stroke-dashoffset: 0; stroke-linejoin: miter; stroke-miterlimit: 4; fill: rgb(31,31,31); fill-rule: nonzero; opacity: 1;" vector-effect="non-scaling-stroke" transform=" translate(-122.46, -73.07)" d="M 129.59 88.21 L 123.18 77.21 C 123.05980877082801 76.96166456662303 122.95949451027906 76.70419129788071 122.88000000000001 76.44 C 122.82387213683477 76.18199967364653 122.75037131620697 75.92808774784139 122.66000000000001 75.67999999999999 L 122.57000000000001 75.67999999999999 C 122.46000000000001 75.96 122.38000000000001 76.19999999999999 122.30000000000001 76.46 C 122.21095912857082 76.71870713932549 122.10057952738434 76.96956986929476 121.97000000000001 77.21 L 115.44000000000001 88.21 L 109.32000000000001 88.21 L 119.46 73 L 110.2 57.9 L 116.38 57.9 L 121.78999999999999 67.9 C 122.20950438205062 68.61218087978462 122.54507541801766 69.37057142107014 122.78999999999999 70.16000000000001 L 122.86999999999999 70.16000000000001 C 123.16999999999999 69.37 123.39999999999999 68.85000000000001 123.52 68.60000000000001 C 123.64 68.35000000000001 125.72999999999999 64.81 129.79 57.94000000000001 L 135.47 57.94000000000001 L 126.00999999999999 72.94000000000001 L 135.59 88.23000000000002 Z" stroke-linecap="round" />
            </g>
        </g>
    </g>
</svg>